<?xml version="1.0" encoding="utf-8"?>
<!-- Generator: Adobe Illustrator 25.2.1, SVG Export Plug-In . SVG Version: 6.00 Build 0)  -->
<svg version="1.1" id="Layer_1" xmlns="http://www.w3.org/2000/svg" xmlns:xlink="http://www.w3.org/1999/xlink" x="0px" y="0px"
	 viewBox="0 0 63 63" style="enable-background:new 0 0 63 63;" xml:space="preserve">
<style type="text/css">
	.st0{fill:#FCB019;}
	.st1{fill:#2A76BC;}
</style>
<g id="Alpine_skiing">
	<polygon points="0,32.7 30.3,63 31.7,63 0,31.3 	"/>
	<path d="M27,30.2h-2.6l-4.6-4.6c0.4-0.3,0.9-0.4,1.4-0.4H22l-0.5-0.5L21,24.3c-0.9,0-1.7,0.4-2.3,1c0,0,0,0,0,0l0,0l-1.4,1.4
		c-1,1-1,2.6,0,3.5l6,6L18,41.5c-0.5,0.5-0.7,1.1-0.7,1.8s0.3,1.3,0.7,1.8c0.5,0.5,1.1,0.7,1.8,0.7s1.3-0.2,1.8-0.7l7.1-7.1
		c0,0,0,0,0,0c1-1,1-2.6,0-3.5l-3.2-3.2H28l-0.5-0.5L27,30.2z M27.9,35.2c0.6,0.6,0.6,1.5,0,2.1l-7.1,7.1c-0.6,0.6-1.5,0.6-2.1,0
		c-0.3-0.3-0.4-0.7-0.4-1.1c0-0.4,0.2-0.8,0.4-1.1l5.7-5.6c0.1-0.1,0.1-0.2,0.1-0.4c0-0.1-0.1-0.3-0.1-0.4l-5.6-5.6l0,0L18,29.5
		c-0.4-0.4-0.5-1.1-0.3-1.7c0.1-0.2,0.2-0.3,0.3-0.5l0.2-0.2l0.8-0.8l0,0l3.9,3.9l0.5,0.5l0.5,0.5L27.9,35.2z"/>
	<path class="st0" d="M29.4,31.2l-0.5-0.5l-0.5-0.5l-5-5l-0.5-0.5l-0.5-0.5l-5.8-5.8c-0.2-0.2-0.5-0.2-0.7,0s-0.2,0.5,0,0.7l5.1,5.1
		l0.5,0.5l0.5,0.5l5,5l0.5,0.5l0.5,0.5l2.7,2.7v-1.4L29.4,31.2z"/>
	<path d="M40.2,24.2c-1.9,0-3.5,1.6-3.5,3.5s1.6,3.5,3.5,3.5s3.5-1.6,3.5-3.5S42.1,24.2,40.2,24.2z M40.2,30.2
		c-1.4,0-2.5-1.1-2.5-2.5s1.1-2.5,2.5-2.5s2.5,1.1,2.5,2.5S41.5,30.2,40.2,30.2z"/>
	<path d="M35.6,34.7v-7c0-1.9-1.6-3.5-3.5-3.5h-9.8l0.5,0.5l0.5,0.5h8.8c1.4,0,2.5,1.1,2.5,2.5c0,0,0,0.1,0,0.1l0,0v1.5v0.8v4.7
		c0,0.1,0.1,0.3,0.1,0.4l5.1,5.1c0.3,0.3,0.4,0.7,0.4,1.1c0,0.4-0.2,0.9-0.5,1.1c-0.6,0.5-1.5,0.4-2.1-0.2l-5.6-5.6
		c-0.3-0.3-0.4-0.7-0.4-1.1v-0.8v-1.4v-2.3v-0.5v-0.5v-1.5c0,0,0-0.1,0-0.1c-0.1-0.2-0.2-0.4-0.5-0.4c-0.3,0-0.5,0.2-0.5,0.5v1.5
		h-2.3l0.5,0.5l0.5,0.5h1.3v1.3v1.4v1.8c0,0.7,0.3,1.3,0.7,1.8l5.6,5.6c0.5,0.5,1.2,0.8,1.9,0.8c0.6,0,1.1-0.2,1.6-0.6
		c0.6-0.5,0.9-1.2,0.9-1.9c0-0.7-0.3-1.3-0.7-1.8L35.6,34.7z"/>
	<path class="st1" d="M27.2,57.1c0.5,0.5,1.1,0.7,1.8,0.7s1.3-0.3,1.8-0.7c0.2-0.2,0.2-0.5,0-0.7c-0.2-0.2-0.5-0.2-0.7,0
		c-0.6,0.6-1.6,0.6-2.1,0L6.7,35.2C6.5,35,6.1,35,6,35.2s-0.2,0.5,0,0.7L27.2,57.1z"/>
</g>
</svg>
