<?xml version="1.0" encoding="utf-8"?>
<!-- Generator: Adobe Illustrator 25.2.1, SVG Export Plug-In . SVG Version: 6.00 Build 0)  -->
<svg version="1.1" id="Layer_1" xmlns="http://www.w3.org/2000/svg" xmlns:xlink="http://www.w3.org/1999/xlink" x="0px" y="0px"
	 viewBox="0 0 63 63" style="enable-background:new 0 0 63 63;" xml:space="preserve">
<style type="text/css">
	.st0{fill:#2A76BC;}
	.st1{fill:#00A64F;}
</style>
<g id="Biathlon">
	<path class="st0" d="M55.7,53.5c-0.3,0-0.5,0.2-0.5,0.5c0,0.8-0.7,1.5-1.5,1.5h-46c-0.3,0-0.5,0.2-0.5,0.5s0.2,0.5,0.5,0.5h46
		c1.4,0,2.5-1.1,2.5-2.5C56.2,53.7,56,53.5,55.7,53.5z"/>
	<path d="M28.7,16c1.9,0,3.5-1.6,3.5-3.5S30.7,9,28.7,9s-3.5,1.6-3.5,3.5S26.8,16,28.7,16z M28.7,10c1.4,0,2.5,1.1,2.5,2.5
		S30.1,15,28.7,15s-2.5-1.1-2.5-2.5S27.3,10,28.7,10z"/>
	<path class="st1" d="M25.2,17.5c0.2,0.1,0.4,0.3,0.5,0.5h5.4l-5,2c-0.1,0.6-0.4,1.1-0.8,1.4l7.4-3l0.5-0.2l0.5-0.2l0,0H41h0.7h2.6
		H45h7.7h1c0.3,0,0.5-0.2,0.5-0.5S54,17,53.7,17h-0.5v-0.5c0-0.3-0.2-0.5-0.5-0.5s-0.5,0.2-0.5,0.5V17H33.7h-2h-7.9h-0.1
		c0,0,0,0,0,0C24.3,17.1,24.8,17.2,25.2,17.5z"/>
	<path d="M15.7,22h7.5v9.5V33l-7.5,18c-0.5,1.3,0.1,2.7,1.4,3.3c0.6,0.3,1.3,0.3,1.9,0c0.6-0.3,1.1-0.7,1.4-1.4l7-16.9h0.7l7,16.9
		c0.3,0.6,0.7,1.1,1.4,1.4c0.3,0.1,0.6,0.2,1,0.2s0.6-0.1,1-0.2c0.6-0.3,1.1-0.7,1.4-1.4c0.3-0.6,0.3-1.3,0-1.9l-7.5-18v-1.5v-8
		l3.4,3.4c1,1,2.6,1,3.5,0l5.7-5.7c0.5-0.5,0.8-1.2,0.7-2c0-0.5-0.2-0.9-0.5-1.3h-0.7h-2.6H41l-3.6,3.6l-3.6-3.6l-0.5,0.2l-0.5,0.2
		c0,0,0,0,0,0l4.2,4.2c0.2,0.2,0.5,0.2,0.7,0l4.2-4.2c0.6-0.6,1.4-0.7,2-0.2h0c0.4,0.3,0.6,0.7,0.6,1.1c0,0.4-0.1,0.9-0.4,1.2
		l-5.7,5.7c-0.6,0.6-1.5,0.6-2.1,0L32.1,22c-0.1-0.1-0.4-0.2-0.5-0.1c-0.2,0.1-0.3,0.3-0.3,0.5V31h-7V22c0.4-0.1,0.8-0.3,1.1-0.6
		c0.4-0.4,0.7-0.8,0.8-1.4c0-0.2,0-0.3,0-0.5c0-0.6-0.2-1.1-0.5-1.5c-0.1-0.2-0.3-0.4-0.5-0.5c-0.4-0.3-0.9-0.5-1.4-0.5c0,0,0,0,0,0
		h-8c-1.4,0-2.5,1.1-2.5,2.5S14.3,22,15.7,22z M15.7,18h6h0.7h0.8h0.5c0,0,0,0,0.1,0c0.2,0,0.3,0,0.4,0.1c0.6,0.2,1,0.8,1,1.4
		c0,0.4-0.2,0.8-0.4,1c-0.3,0.3-0.7,0.5-1.1,0.5h-0.5h-0.8h-0.7h-6c-0.8,0-1.5-0.7-1.5-1.5S14.9,18,15.7,18z M38.8,51.4
		c0.2,0.4,0.2,0.8,0,1.1s-0.4,0.7-0.8,0.8s-0.8,0.2-1.1,0c-0.4-0.2-0.7-0.4-0.8-0.8l-7.1-17.2c-0.1-0.2-0.3-0.3-0.5-0.3h-1.3
		c-0.2,0-0.4,0.1-0.5,0.3l-7.1,17.2c-0.2,0.4-0.4,0.7-0.8,0.8c-0.4,0.2-0.8,0.2-1.1,0c-0.8-0.3-1.1-1.2-0.8-2l7.5-18.1
		c0-0.1,0-0.1,0-0.2V32h7v1.1c0,0.1,0,0.1,0,0.2L38.8,51.4z"/>
</g>
</svg>
