<?xml version="1.0" encoding="utf-8"?>
<!-- Generator: Adobe Illustrator 25.2.1, SVG Export Plug-In . SVG Version: 6.00 Build 0)  -->
<svg version="1.1" id="Layer_1" xmlns="http://www.w3.org/2000/svg" xmlns:xlink="http://www.w3.org/1999/xlink" x="0px" y="0px"
	 viewBox="0 0 63 63" style="enable-background:new 0 0 63 63;" xml:space="preserve">
<style type="text/css">
	.st0{fill:#2A76BC;}
</style>
<g id="Bobsleigh">
	<path class="st0" d="M14.6,37.3L0,31.3v1.1l14.2,5.9c0.1,0,0.1,0,0.2,0c0.2,0,0.4-0.1,0.5-0.3C15,37.7,14.9,37.4,14.6,37.3z"/>
	<path d="M29.4,25c0.4,0.2,0.9,0.3,1.3,0.3c0.5,0,0.9-0.1,1.3-0.3c0.9-0.4,1.5-1,1.9-1.9c0.7-1.8-0.1-3.8-1.9-4.6
		c-1.8-0.7-3.8,0.1-4.6,1.9C26.8,22.3,27.6,24.3,29.4,25z M28.5,20.9c0.4-1,1.3-1.5,2.3-1.5c0.3,0,0.6,0.1,1,0.2
		c1.3,0.5,1.9,2,1.4,3.3c-0.3,0.6-0.7,1.1-1.4,1.4c-0.6,0.3-1.3,0.3-1.9,0C28.5,23.6,27.9,22.1,28.5,20.9z"/>
	<path d="M21.1,21.6c0.4,0.2,0.9,0.3,1.3,0.3c0.5,0,0.9-0.1,1.3-0.3c0.9-0.4,1.5-1,1.9-1.9c0.4-0.9,0.4-1.8,0-2.7
		c-0.4-0.9-1-1.5-1.9-1.9c-0.9-0.4-1.8-0.4-2.7,0c-0.9,0.4-1.5,1-1.9,1.9C18.5,18.8,19.3,20.9,21.1,21.6z M20.1,17.4
		c0.3-0.6,0.7-1.1,1.4-1.4c0.3-0.1,0.6-0.2,1-0.2c0.3,0,0.6,0.1,1,0.2c0.6,0.3,1.1,0.7,1.4,1.4s0.3,1.3,0,1.9s-0.7,1.1-1.4,1.4
		c-0.6,0.3-1.3,0.3-1.9,0C20.2,20.1,19.6,18.7,20.1,17.4z"/>
	<path d="M12.8,18.2c0.4,0.2,0.9,0.3,1.3,0.3c0.5,0,0.9-0.1,1.3-0.3c0.9-0.4,1.5-1,1.9-1.9c0.4-0.9,0.4-1.8,0-2.7
		c-0.4-0.9-1-1.5-1.9-1.9c-1.8-0.7-3.8,0.1-4.6,1.9C10.2,15.4,11,17.4,12.8,18.2z M11.8,14c0.4-1,1.3-1.5,2.3-1.5
		c0.3,0,0.6,0.1,1,0.2c1.3,0.5,1.9,2,1.4,3.3c-0.3,0.6-0.7,1.1-1.4,1.4c-0.6,0.3-1.3,0.3-1.9,0C11.9,16.7,11.3,15.2,11.8,14z"/>
	<path d="M4.5,14.7C4.9,14.9,5.4,15,5.8,15c0.5,0,0.9-0.1,1.3-0.3c0.9-0.4,1.5-1,1.9-1.9c0.4-0.9,0.4-1.8,0-2.7
		C8.7,9.3,8,8.6,7.2,8.2c-0.9-0.4-1.8-0.4-2.7,0c-0.9,0.4-1.5,1-1.9,1.9c-0.4,0.9-0.4,1.8,0,2.7C2.9,13.7,3.6,14.4,4.5,14.7z
		 M3.5,10.5c0.3-0.6,0.7-1.1,1.4-1.4C5.2,9,5.5,9,5.8,9c0.3,0,0.6,0.1,1,0.2c0.6,0.3,1.1,0.7,1.4,1.4s0.3,1.3,0,1.9
		c-0.3,0.6-0.7,1.1-1.4,1.4c-0.6,0.3-1.3,0.3-1.9,0c-0.6-0.3-1.1-0.7-1.4-1.4S3.3,11.1,3.5,10.5z"/>
	<path class="st0" d="M49.7,51.8l-22.2-9.2c-0.3-0.1-0.5,0-0.7,0.3s0,0.5,0.3,0.7l22.2,9.2c0.1,0,0.1,0,0.2,0c0.2,0,0.4-0.1,0.5-0.3
		C50.1,52.2,50,52,49.7,51.8z"/>
	<path d="M55.6,48.3c0-0.1-0.1-0.3-0.2-0.4c0,0,0-0.1-0.1-0.1c-0.1-0.1-0.2-0.2-0.3-0.3c0,0,0,0,0,0C51.5,39.2,44.7,32.4,36.3,29
		L0,13.9V15l35.9,14.9c7.8,3.2,14.2,9.4,17.7,17.1L34.5,39c-0.4-0.2-0.8-0.2-1.1,0c-0.4,0.2-0.7,0.4-0.8,0.8s-0.2,0.8,0,1.1
		s0.4,0.7,0.8,0.8L53.1,50c-0.1,0.2-0.3,0.3-0.5,0.4c-0.4,0.2-0.8,0.2-1.1,0L0,29.1v1.1l51,21.1c0.3,0.1,0.6,0.2,1,0.2
		c0.3,0,0.6-0.1,1-0.2c0.5-0.2,0.9-0.5,1.2-1c0,0,0,0,0,0c0,0,0,0,0.1,0c0.1,0,0.1,0,0.2,0c0.1,0,0.2,0,0.2,0c0,0,0.1,0,0.1-0.1
		c0.1,0,0.2-0.1,0.3-0.1c0.1,0,0.1-0.1,0.1-0.1c0.1-0.1,0.1-0.1,0.2-0.2c0.1-0.1,0.1-0.2,0.2-0.3c0,0,0,0,0-0.1c0,0,0,0,0,0
		c0,0,0,0,0,0c0.1-0.2,0.1-0.3,0.1-0.5c0,0,0,0,0-0.1C55.7,48.7,55.7,48.6,55.6,48.3C55.6,48.4,55.6,48.4,55.6,48.3z M54.7,49
		C54.7,49,54.7,49,54.7,49c0,0.1-0.1,0.2-0.2,0.2c0,0,0,0,0,0c-0.1,0-0.1,0.1-0.2,0.1c0,0-0.1,0-0.1,0c0,0-0.1,0-0.1,0c0,0,0,0,0,0
		l-20.3-8.4c-0.1-0.1-0.2-0.1-0.3-0.3c-0.1-0.1-0.1-0.3,0-0.4s0.1-0.2,0.3-0.3c0.1,0,0.1,0,0.2,0c0.1,0,0.1,0,0.2,0l20.3,8.4
		c0,0,0,0,0,0c0.1,0,0.1,0.1,0.2,0.1c0,0,0,0,0,0.1c0,0.1,0.1,0.2,0.1,0.2C54.7,48.9,54.7,48.9,54.7,49z"/>
	<path d="M15.4,34.3c0.2,0,0.4,0,0.6-0.1c0.4-0.2,0.7-0.4,0.8-0.8s0.2-0.8,0-1.1c-0.2-0.4-0.4-0.7-0.8-0.8L0,24.8v1.1l15.6,6.5h0
		c0.1,0.1,0.2,0.1,0.3,0.3c0.1,0.1,0.1,0.3,0,0.4s-0.1,0.2-0.3,0.3c-0.1,0.1-0.3,0.1-0.4,0L0,26.9V28l14.8,6.1
		C15,34.2,15.2,34.3,15.4,34.3z"/>
</g>
</svg>
