<?xml version="1.0" encoding="utf-8"?>
<!-- Generator: Adobe Illustrator 25.2.1, SVG Export Plug-In . SVG Version: 6.00 Build 0)  -->
<svg version="1.1" id="Layer_1" xmlns="http://www.w3.org/2000/svg" xmlns:xlink="http://www.w3.org/1999/xlink" x="0px" y="0px"
	 viewBox="0 0 63 63" style="enable-background:new 0 0 63 63;" xml:space="preserve">
<style type="text/css">
	.st0{fill:none;}
	.st1{fill:#EE2B2F;}
</style>
<g id="Curling">
	<path class="st0" d="M56.2,42h-1h-6c-0.6,0-1,0.4-1,1v1c0,0.6,0.4,1,1,1h7c0.6,0,1-0.4,1-1v-1C57.2,42.5,56.8,42,56.2,42z"/>
	<path class="st0" d="M40.7,22.7c0.5-0.5,0.7-1.1,0.7-1.8s-0.3-1.3-0.7-1.8s-1.1-0.7-1.8-0.7s-1.3,0.3-1.8,0.7s-0.7,1.1-0.7,1.8
		s0.3,1.3,0.7,1.8C38.1,23.6,39.8,23.6,40.7,22.7z"/>
	<path class="st0" d="M27.5,37.3h2.7c0.2,0,0.4,0.1,0.5,0.3c0.1,0.2,0,0.4-0.1,0.5L27,41.8c-0.3,0.3-0.4,0.7-0.4,1.1
		s0.2,0.8,0.4,1.1c0.6,0.6,1.6,0.6,2.1,0l7.1-7.1c0.3-0.3,0.4-0.7,0.4-1.1c0-0.8-0.7-1.5-1.5-1.5h-4.6L28,36.8L27.5,37.3z"/>
	<path class="st0" d="M36.5,18.4c1.3-1.3,3.6-1.3,4.9,0c0.7,0.7,1,1.5,1,2.5c0,0.9-0.4,1.8-1,2.5s-1.5,1-2.5,1s-1.8-0.4-2.5-1
		s-1-1.5-1-2.5S35.8,19.1,36.5,18.4z M45.3,39.7c-0.6,0-1.3-0.2-1.8-0.7l-8.8-8.8l-3.2,3.2h3.6c1.4,0,2.5,1.1,2.5,2.5
		c0,0.7-0.3,1.3-0.7,1.8l-7.1,7.1c-0.5,0.5-1.1,0.7-1.8,0.7s-1.3-0.3-1.8-0.7c-0.5-0.5-0.7-1.1-0.7-1.8s0.3-1.3,0.7-1.8l2.8-2.8
		h-2.5l-7,7C19,45.8,18.4,46,17.7,46h-10c-1.4,0-2.5-1.1-2.5-2.5S6.3,41,7.7,41h9l4.6-4.6c-0.6-1-0.5-2.3,0.3-3.1l1.4-1.4l7.8-7.8
		c1.3-1.3,3.6-1.3,4.9,0c0,0,0,0,0,0l11.3,11.3c0.5,0.5,0.7,1.1,0.7,1.8s-0.3,1.3-0.7,1.8C46.6,39.4,45.9,39.7,45.3,39.7z M58.2,44
		c0,1.1-0.9,2-2,2h-7c-1.1,0-2-0.9-2-2v-1c0-1.1,0.9-2,2-2h5.4c-0.2-0.6-0.8-1-1.4-1h-3c-0.3,0-0.5-0.2-0.5-0.5s0.2-0.5,0.5-0.5h3
		c1.2,0,2.2,0.9,2.4,2h0.6c1.1,0,2,0.9,2,2V44z"/>
	<path class="st1" d="M56.2,41h-0.6c-0.2-1.1-1.2-2-2.4-2h-3c-0.3,0-0.5,0.2-0.5,0.5s0.2,0.5,0.5,0.5h3c0.7,0,1.2,0.4,1.4,1h-5.4
		c-1.1,0-2,0.9-2,2v1c0,1.1,0.9,2,2,2h7c1.1,0,2-0.9,2-2v-1C58.2,41.9,57.3,41,56.2,41z M57.2,44c0,0.6-0.4,1-1,1h-7
		c-0.6,0-1-0.4-1-1v-1c0-0.6,0.4-1,1-1h6h1c0.6,0,1,0.4,1,1V44z"/>
	<path d="M38.9,24.4c0.9,0,1.8-0.4,2.5-1s1-1.5,1-2.5c0-0.9-0.4-1.8-1-2.5c-1.3-1.3-3.6-1.3-4.9,0c-0.7,0.7-1,1.5-1,2.5
		s0.4,1.8,1,2.5S38,24.4,38.9,24.4z M37.2,19.1c0.5-0.5,1.1-0.7,1.8-0.7s1.3,0.3,1.8,0.7s0.7,1.1,0.7,1.8s-0.3,1.3-0.7,1.8
		c-0.9,0.9-2.6,0.9-3.5,0c-0.5-0.5-0.7-1.1-0.7-1.8S36.7,19.6,37.2,19.1z"/>
	<path d="M47.1,35.4L35.8,24.1c0,0,0,0,0,0c-1.3-1.3-3.6-1.3-4.9,0L23,31.9l-1.4,1.4c-0.9,0.9-1,2.2-0.3,3.1L16.7,41h-9
		c-1.4,0-2.5,1.1-2.5,2.5S6.3,46,7.7,46h10c0.7,0,1.3-0.3,1.8-0.7l7-7h2.5l-2.8,2.8c-0.5,0.5-0.7,1.1-0.7,1.8s0.3,1.3,0.7,1.8
		c0.5,0.5,1.1,0.7,1.8,0.7s1.3-0.3,1.8-0.7l7.1-7.1c0.5-0.5,0.7-1.1,0.7-1.8c0-1.4-1.1-2.5-2.5-2.5h-3.6l3.2-3.2l8.8,8.8
		c0.5,0.5,1.1,0.7,1.8,0.7c0.6,0,1.3-0.2,1.8-0.7c0.5-0.5,0.7-1.1,0.7-1.8S47.5,35.9,47.1,35.4z M44.2,38.2l-8.8-8.8L35,29l-0.4-0.4
		l-1.1-1.1c0,0-0.1,0-0.1-0.1c-0.2-0.1-0.4-0.1-0.6,0.1c-0.2,0.2-0.2,0.5,0,0.7l1.1,1.1l-3.9,3.9l-1,1l-1.5,1.5l-1.5-1.5L25.9,34
		l-0.7-0.7l-1-1l7.4-7.4c0.9-0.9,2.6-0.9,3.5,0c0,0,0.1,0.1,0.1,0.1l0,0l1.1,1.1l0.6,0.6l9.6,9.6c0.3,0.3,0.4,0.7,0.4,1.1
		s-0.2,0.8-0.4,1.1C45.8,38.8,44.8,38.8,44.2,38.2z M6.2,43.5c0-0.8,0.7-1.5,1.5-1.5h9.2c0.1,0,0.3-0.1,0.4-0.1l5.1-5.1
		c0.2-0.2,0.2-0.5,0-0.7c-0.6-0.6-0.6-1.5,0-2.1l1.1-1.1l0.6,0.6l0.8,0.8l0.4,0.4l1.8,1.8l-0.8,0.8l-1,1l-6.3,6.3
		c-0.3,0.3-0.7,0.4-1.1,0.4h-10C6.9,45,6.2,44.4,6.2,43.5z M35.1,34.3c0.8,0,1.5,0.7,1.5,1.5c0,0.4-0.2,0.8-0.4,1.1l-7.1,7.1
		c-0.6,0.6-1.6,0.6-2.1,0c-0.3-0.3-0.4-0.7-0.4-1.1s0.2-0.8,0.4-1.1l3.7-3.7c0.1-0.1,0.2-0.4,0.1-0.5c-0.1-0.2-0.3-0.3-0.5-0.3h-2.7
		l0.4-0.4l2.6-2.6H35.1z"/>
</g>
</svg>
