<?xml version="1.0" encoding="utf-8"?>
<!-- Generator: Adobe Illustrator 25.2.1, SVG Export Plug-In . SVG Version: 6.00 Build 0)  -->
<svg version="1.1" id="Layer_1" xmlns="http://www.w3.org/2000/svg" xmlns:xlink="http://www.w3.org/1999/xlink" x="0px" y="0px"
	 viewBox="0 0 63 63" style="enable-background:new 0 0 63 63;" xml:space="preserve">
<style type="text/css">
	.st0{fill:#2A76BC;}
</style>
<g id="Figure_skating">
	<path d="M54.7,25h-16h-11c0,0,0,0,0,0h-2L13.3,12.6c-1-1-2.6-1-3.5,0c-1,1-1,2.6,0,3.5l13.4,13.4v19c0,1.4,1.1,2.5,2.5,2.5
		s2.5-1.1,2.5-2.5V32h10.5c0.4,0,0.8-0.1,1.2-0.2l3.4,3.4c0.5,0.5,1.1,0.7,1.8,0.7c0.6,0,1.3-0.2,1.8-0.7l5.2-5.2h2.7
		c1.4,0,2.5-1.1,2.5-2.5S56.1,25,54.7,25z M54.7,29h-1.8c0.2-0.4,0.3-0.8,0.3-1.2c0-0.7-0.3-1.3-0.7-1.8c0,0,0,0,0,0h2.3
		c0.8,0,1.5,0.7,1.5,1.5S55.6,29,54.7,29z M50.7,30l-4.5,4.5c-0.6,0.6-1.5,0.6-2.1,0l-3.2-3.2L40.5,31l-0.4-0.4L39.5,30l-0.4-0.4
		c0,0-0.1,0-0.1-0.1c0,0,0,0,0,0c-0.1-0.1-0.3-0.1-0.5,0c0,0-0.1,0-0.1,0.1c-0.1,0.1-0.2,0.3-0.1,0.4c0,0.1,0.1,0.2,0.1,0.3l0.7,0.7
		c-0.1,0-0.2,0-0.3,0H28.2v-5h8.5h0.7h1.3c0.7,0,1.3,0.3,1.8,0.7c0,0,0,0,0,0c0,0,0,0.1,0.1,0.1l0,0c0.3,0.4,0.7,0.8,1.1,1.2
		c0.2,0.2,0.4,0.4,0.5,0.6c0.2,0.2,0.3,0.3,0.5,0.5c0.2,0.2,0.3,0.3,0.5,0.5c0.2,0.2,0.4,0.3,0.5,0.5c0.6,0.6,1,1,1,1
		c0.2,0.2,0.5,0.2,0.7,0l1-1l0.5-0.5l0.5-0.5l2.3-2.3c0.3-0.3,0.7-0.4,1.1-0.4h0c0.4,0,0.8,0.2,1.1,0.4c0.3,0.3,0.4,0.7,0.4,1.1
		c0,0.4-0.2,0.8-0.4,1.1L51.7,29l-0.5,0.5L50.7,30z M24.2,48.5v-18v-0.7v-0.7v-1.6c0-0.7,0.5-1.3,1.2-1.5c0.1,0,0.2,0,0.3,0h0.3h0.7
		h0.5v0.5v0.7v1.3v0v1.3v0.7v18c0,0.8-0.7,1.5-1.5,1.5S24.2,49.4,24.2,48.5z M11.6,12.9c0.4,0,0.8,0.1,1.1,0.4l12,12
		c-0.8,0.4-1.4,1.3-1.4,2.2v0.6L10.5,15.5c-0.6-0.6-0.6-1.5,0-2.1C10.8,13,11.2,12.9,11.6,12.9z M49,26C49,26.1,49,26.1,49,26l-3,3
		h-1.9c-0.9-0.8-2-1.9-2.9-3c0,0,0,0,0,0c0,0,0,0,0,0c0,0,0,0,0,0H49z"/>
	<path class="st0" d="M30.7,52h-8c-0.3,0-0.5,0.2-0.5,0.5s0.2,0.5,0.5,0.5h8c0.3,0,0.5-0.2,0.5-0.5S31,52,30.7,52z"/>
	<path class="st0" d="M11.2,9.1c-0.2-0.2-0.5-0.2-0.7,0l-5.7,5.7c-0.2,0.2-0.2,0.5,0,0.7c0.1,0.1,0.2,0.1,0.4,0.1s0.3,0,0.4-0.1
		l5.7-5.7C11.4,9.6,11.4,9.3,11.2,9.1z"/>
	<path d="M38.7,24c1.9,0,3.5-1.6,3.5-3.5S40.7,17,38.7,17s-3.5,1.6-3.5,3.5S36.8,24,38.7,24z M38.7,18c1.4,0,2.5,1.1,2.5,2.5
		S40.1,23,38.7,23s-2.5-1.1-2.5-2.5S37.3,18,38.7,18z"/>
</g>
</svg>
