<?xml version="1.0" encoding="utf-8"?>
<!-- Generator: Adobe Illustrator 25.2.1, SVG Export Plug-In . SVG Version: 6.00 Build 0)  -->
<svg version="1.1" id="Layer_1" xmlns="http://www.w3.org/2000/svg" xmlns:xlink="http://www.w3.org/1999/xlink" x="0px" y="0px"
	 viewBox="0 0 63 63" style="enable-background:new 0 0 63 63;" xml:space="preserve">
<style type="text/css">
	.st0{fill:#FCB019;}
	.st1{fill:#2A76BC;}
</style>
<g id="Freestyle_skiing">
	<path class="st0" d="M52.2,45.1V25.5c0-0.3-0.2-0.5-0.5-0.5s-0.5,0.2-0.5,0.5V45h0.5C51.9,45,52.1,45.1,52.2,45.1z"/>
	<path class="st0" d="M12.2,45V25.5c0-0.3-0.2-0.5-0.5-0.5s-0.5,0.2-0.5,0.5v19.6c0.2,0,0.3-0.1,0.5-0.1H12.2z"/>
	<path class="st1" d="M32,6.2c0.6-0.6,1.6-0.6,2.1,0c0.2,0.2,0.5,0.2,0.7,0C35,6,35,5.7,34.8,5.5c-0.9-0.9-2.6-0.9-3.5,0L31,5.7
		l-0.2-0.2c-0.9-0.9-2.6-0.9-3.5,0L11.7,21.1c-0.2,0.2-0.2,0.5,0,0.7c0.1,0.1,0.2,0.1,0.4,0.1s0.3,0,0.4-0.1L28,6.2
		c0.6-0.6,1.6-0.6,2.1,0l0.2,0.2L22.8,14c0.4,0,0.8,0.1,1.1,0.3L32,6.2z"/>
	<path class="st1" d="M15.7,21.1c-0.2,0.2-0.2,0.5,0,0.7c0.1,0.1,0.2,0.1,0.4,0.1s0.3,0,0.4-0.1l4.1-4.1c-0.2-0.3-0.3-0.7-0.3-1.1
		L15.7,21.1z"/>
	<path d="M31.7,51c-1.9,0-3.5,1.6-3.5,3.5s1.6,3.5,3.5,3.5s3.5-1.6,3.5-3.5S33.7,51,31.7,51z M31.7,57c-1.4,0-2.5-1.1-2.5-2.5
		s1.1-2.5,2.5-2.5s2.5,1.1,2.5,2.5S33.1,57,31.7,57z"/>
	<path d="M52.2,45.1c-0.2,0-0.3-0.1-0.5-0.1h-0.5h-15v-9.5v-12c0-0.7-0.3-1.3-0.7-1.8l-7.1-7.1c-0.5-0.5-1.2-0.8-2-0.7
		c-0.7,0.1-1.3,0.4-1.8,1l-0.3-0.3c-0.2-0.2-0.4-0.3-0.5-0.4c-0.3-0.2-0.7-0.3-1.1-0.3c-0.1,0-0.2,0-0.3,0c-0.7,0.1-1.4,0.4-1.8,1
		c-0.3,0.5-0.5,1-0.4,1.6c0,0.4,0.1,0.8,0.3,1.1c0.1,0.2,0.3,0.4,0.5,0.6l6.3,6.3v11V45h-15h-0.5c-0.2,0-0.3,0-0.5,0.1
		c-1.1,0.2-2,1.2-2,2.4c0,1.4,1.1,2.5,2.5,2.5h40c1.4,0,2.5-1.1,2.5-2.5C54.2,46.3,53.4,45.3,52.2,45.1z M21.7,17.6
		c-0.2-0.2-0.3-0.4-0.4-0.7c-0.1-0.4-0.1-0.9,0.2-1.3c0.3-0.4,0.7-0.6,1.1-0.6c0.2,0,0.4,0,0.6,0.1c0.2,0.1,0.4,0.2,0.6,0.4l0.5,0.5
		l1.1,1.1l5.5,5.5c0.2,0.2,0.3,0.4,0.4,0.6c0,0.1,0.1,0.3,0.1,0.5v1v6v1c0,0.1,0.1,0.3,0.1,0.4s0.2,0.1,0.4,0.1
		c0.3,0,0.5-0.2,0.5-0.5v-1v-6.2v-0.8c0-0.7-0.3-1.3-0.7-1.8l-6.1-6.1c0,0,0,0,0-0.1c0.3-0.4,0.7-0.6,1.1-0.6c0.4,0,0.9,0.1,1.2,0.4
		l7.1,7.1c0.3,0.3,0.4,0.7,0.4,1.1V35h-7l0,0v0V24.4c0-0.1-0.1-0.3-0.1-0.4L21.7,17.6z M51.7,49h-40c-0.8,0-1.5-0.7-1.5-1.5
		c0-0.7,0.4-1.2,1-1.4c0.2-0.1,0.3-0.1,0.5-0.1h0.5h15.5c0.3,0,0.5-0.2,0.5-0.5V36h7v9.5c0,0.3,0.2,0.5,0.5,0.5h15.5h0.5
		c0.2,0,0.3,0,0.5,0.1c0.6,0.2,1,0.8,1,1.4C53.2,48.4,52.5,49,51.7,49z"/>
</g>
</svg>
