<?xml version="1.0" encoding="utf-8"?>
<!-- Generator: Adobe Illustrator 25.2.1, SVG Export Plug-In . SVG Version: 6.00 Build 0)  -->
<svg version="1.1" id="Layer_1" xmlns="http://www.w3.org/2000/svg" xmlns:xlink="http://www.w3.org/1999/xlink" x="0px" y="0px"
	 viewBox="0 0 63 63" style="enable-background:new 0 0 63 63;" xml:space="preserve">
<style type="text/css">
	.st0{fill:#EE2B2F;}
	.st1{fill:#2A76BC;}
</style>
<g id="Ice_hockey">
	<path class="st0" d="M53.2,45h-6.8l-4.9-4.9c0,0,0,0,0,0.1c-0.2,0.3-0.4,0.5-0.7,0.6l5.1,5.1c0,0,0,0,0,0l0.8,0.8
		c0.8,0.9,2,1.3,3.2,1.3h3.3c0.8,0,1.5-0.7,1.5-1.5S54,45,53.2,45z M53.2,47h-3.3c-0.9,0-1.8-0.4-2.4-1h5.8c0.3,0,0.5,0.2,0.5,0.5
		S53.5,47,53.2,47z"/>
	<polygon class="st0" points="29.9,28.6 28.5,28.6 31.2,31.3 31.2,29.9 	"/>
	<path class="st1" d="M32.4,47h-8c-0.3,0-0.5,0.2-0.5,0.5s0.2,0.5,0.5,0.5h8c0.3,0,0.5-0.2,0.5-0.5S32.7,47,32.4,47z"/>
	<path class="st1" d="M18.3,47h-8c-0.3,0-0.5,0.2-0.5,0.5S10,48,10.3,48h8c0.3,0,0.5-0.2,0.5-0.5S18.5,47,18.3,47z"/>
	<path d="M38.4,22.9c0.9,0,1.8-0.4,2.5-1c0.7-0.7,1-1.5,1-2.5c0-0.9-0.4-1.8-1-2.5c-1.3-1.3-3.6-1.3-4.9,0c-1.4,1.4-1.4,3.6,0,4.9
		C36.6,22.5,37.4,22.9,38.4,22.9z M36.6,17.6c0.5-0.5,1.1-0.7,1.8-0.7c0.7,0,1.3,0.3,1.8,0.7c0.5,0.5,0.7,1.1,0.7,1.8
		c0,0.7-0.3,1.3-0.7,1.8c-0.9,0.9-2.6,0.9-3.5,0C35.6,20.2,35.6,18.6,36.6,17.6z"/>
	<path d="M41.4,40.2C41.4,40.1,41.4,40.1,41.4,40.2c0.7-1,0.5-2.4-0.4-3.3L36.2,32v-7c0-0.9-0.4-1.8-1-2.5l-5.7-5.7
		c-0.7-0.7-1.8-0.9-2.7-0.5c-1,0.4-1.5,1.3-1.5,2.3v2.9h-3.6c-0.9,0-1.8,0.4-2.5,1c0,0,0,0,0,0c0,0,0,0,0,0L17.8,24
		c-1,1-1,2.5,0,3.5v7.9l-6.3,6.3c-0.9,0.9-1,2.3-0.3,3.3c0.4,0.6,1.1,1,1.8,1c0.1,0,0.1,0,0.2,0c0.7,0,1.3-0.3,1.8-0.7l7.1-7.1
		c0.5-0.5,0.7-1.1,0.7-1.8v-4l2.1,2.1v8.9c0,1.3,0.9,2.4,2.1,2.6c0.1,0,0.3,0,0.4,0c0.6,0,1.2-0.2,1.6-0.6c0.6-0.5,0.9-1.2,0.9-1.9
		v-10c0-0.7-0.3-1.3-0.7-1.8l-3.2-3.2h2.6h1.4h1.3v1.3v1.4v1.8c0,0.7,0.3,1.3,0.7,1.8l5.7,5.7c0.5,0.5,1.1,0.7,1.8,0.7
		c0.1,0,0.1,0,0.2,0c0.4,0,0.8-0.2,1.2-0.4C41,40.6,41.2,40.4,41.4,40.2z M40.7,39.4c0,0.1-0.1,0.2-0.1,0.2
		c-0.2,0.2-0.4,0.4-0.6,0.5c-0.2,0.1-0.3,0.1-0.5,0.1c-0.4,0-0.9-0.1-1.2-0.4l-5.7-5.7c-0.3-0.3-0.4-0.7-0.4-1.1v-0.8v-1.4v-2.3
		v-0.5v-0.5v-1v-0.5c0,0,0-0.1,0-0.1c-0.1-0.2-0.2-0.4-0.5-0.4c-0.2,0-0.3,0.1-0.4,0.2c-0.1,0.1-0.1,0.2-0.1,0.3v1.5h-2.3h-1.4h-2.6
		L20.3,23c0.4-0.3,0.9-0.4,1.4-0.4h3.6h1h6.4c0.7,0,1.3,0.3,1.8,0.7c0,0,0,0,0,0c0.5,0.5,0.7,1.1,0.7,1.8c0,0,0,0.1,0,0.1l0,0v0.9
		v0.6v0.8v4.7c0,0.1,0.1,0.3,0.1,0.4l5,5C40.8,38.1,41,38.8,40.7,39.4z M28.9,43.6c0,0.4-0.2,0.9-0.5,1.1C28,45,27.6,45.1,27.1,45
		c-0.7-0.1-1.3-0.8-1.3-1.6v-9.1c0-0.1-0.1-0.3-0.1-0.4l-2.9-2.9l-0.5-0.5l-0.5-0.5l-2.5-2.5l0,0l-0.4-0.4l-0.3-0.3
		c-0.1-0.1-0.2-0.2-0.2-0.4c-0.2-0.4-0.3-0.9-0.1-1.3c0.1-0.1,0.2-0.3,0.3-0.4c0,0,0,0,0-0.1l0.2-0.2l0.8-0.8l0,0L20,24l0.5,0.5
		l1.8,1.8l0.5,0.5l0.7,0.7l0.5,0.5l0.5,0.5l3.9,3.9c0.3,0.3,0.4,0.7,0.4,1.1V43.6z M21.8,36.5c0,0.4-0.2,0.8-0.4,1.1l-7.1,7.1
		c-0.3,0.3-0.8,0.5-1.2,0.4c-0.4,0-0.8-0.3-1.1-0.6c-0.4-0.6-0.3-1.4,0.2-2l6.4-6.4c0.1-0.1,0.1-0.2,0.1-0.4v-7.1l3,3V36.5z
		 M26.3,18.7c0-0.7,0.5-1.2,0.9-1.4c0.4-0.2,1.1-0.2,1.6,0.3l3.9,3.9c0,0,0,0,0,0h-6.4V18.7z"/>
</g>
</svg>
