<?xml version="1.0" encoding="utf-8"?>
<!-- Generator: Adobe Illustrator 25.2.1, SVG Export Plug-In . SVG Version: 6.00 Build 0)  -->
<svg version="1.1" id="Layer_1" xmlns="http://www.w3.org/2000/svg" xmlns:xlink="http://www.w3.org/1999/xlink" x="0px" y="0px"
	 viewBox="0 0 63 63" style="enable-background:new 0 0 63 63;" xml:space="preserve">
<style type="text/css">
	.st0{fill:#EE2B2F;}
</style>
<g id="Luge">
	<path class="st0" d="M52.7,42.6c-0.3-0.1-0.5,0-0.7,0.3c-0.7,1.8-2.8,2.6-4.6,1.9L17.1,32.1c-0.3-0.1-0.5,0-0.7,0.3
		c-0.1,0.3,0,0.5,0.3,0.7l30.4,12.6c0.6,0.2,1.1,0.3,1.7,0.3c1.8,0,3.4-1,4.2-2.8C53.1,43,52.9,42.7,52.7,42.6z"/>
	<path d="M19.2,20.6c0-1.9-1.6-3.5-3.5-3.5s-3.5,1.6-3.5,3.5s1.6,3.5,3.5,3.5S19.2,22.5,19.2,20.6z M13.2,20.6
		c0-1.4,1.1-2.5,2.5-2.5s2.5,1.1,2.5,2.5s-1.1,2.5-2.5,2.5S13.2,22,13.2,20.6z"/>
	<path d="M27.4,35.3l0.2,0.1l0.1,0l1.8,0.7c0,0,0,0,0,0l1.8,0.8c0.3,0.1,0.6,0.2,1,0.2c0.7,0,1.3-0.3,1.8-0.8l13.6,7.3
		c0.4,0.2,0.8,0.3,1.2,0.3c0.3,0,0.6,0,0.8-0.1c0.7-0.2,1.2-0.7,1.5-1.4c0.5-1.2-0.1-2.6-1.2-3.2l-15.8-8.5
		c-1.2-0.7-2.5-1.3-3.8-1.8c0,0,0,0,0,0l-10.2-4.2c-1.8-0.7-3.8,0.1-4.6,1.9c-0.4,0.9-0.4,1.8,0,2.7c0.4,0.9,1,1.5,1.9,1.9
		L27.4,35.3z M49.4,40.1c0.7,0.4,1.1,1.2,0.8,1.9c-0.2,0.4-0.5,0.7-0.9,0.8c-0.4,0.1-0.8,0.1-1.2-0.1l-13.5-7.3
		c0.5-1.3-0.1-2.7-1.4-3.2L30,31l0.4-0.9c1.1,0.5,2.2,1,3.3,1.6L49.4,40.1z M16.5,27c0.5-1.3,2-1.9,3.3-1.4l9.7,4l-0.4,0.9L20.3,27
		c-0.3-0.1-0.5,0-0.7,0.3c-0.1,0.2,0,0.5,0.2,0.6c0,0,0.1,0.1,0.1,0.1l8.8,3.6h0l0.9,0.4l0,0l3.2,1.3c0.7,0.3,1.1,1.1,0.9,1.8
		c0,0,0,0.1,0,0.1c-0.1,0.3-0.3,0.5-0.6,0.7c-0.4,0.3-0.9,0.3-1.4,0.1l0,0l-1.8-0.8l-1.4-0.6h0l-0.9-0.4l-1.3-0.5l-8.3-3.5l-0.1,0
		c0,0,0,0,0,0C16.6,29.8,15.9,28.3,16.5,27z"/>
</g>
</svg>
