<?xml version="1.0" encoding="utf-8"?>
<!-- Generator: Adobe Illustrator 25.2.1, SVG Export Plug-In . SVG Version: 6.00 Build 0)  -->
<svg version="1.1" id="Layer_1" xmlns="http://www.w3.org/2000/svg" xmlns:xlink="http://www.w3.org/1999/xlink" x="0px" y="0px"
	 viewBox="0 0 63 63" style="enable-background:new 0 0 63 63;" xml:space="preserve">
<style type="text/css">
	.st0{fill:#FCB019;}
	.st1{fill:#2A76BC;}
</style>
<g id="Nordic_combined">
	<path class="st0" d="M47.4,44.2c-0.2,0.2-0.2,0.5,0,0.7c0.1,0.1,0.2,0.1,0.4,0.1s0.3,0,0.4-0.1l8.9-8.9h-1.4L47.4,44.2z"/>
	<path d="M58.2,32.1h-12c0,0,0,0,0,0c0,0,0,0,0,0h0c0,0,0,0,0,0c0,0,0,0,0,0c0,0,0,0,0,0h-6.9c-0.5,0-1,0.2-1.4,0.6l-4.2,4.2
		c-0.3,0.3-0.5,0.6-0.6,1c-0.1,0.3-0.1,0.7,0,1c0.1,0.2,0.2,0.5,0.3,0.7c0.3,0.5,0.9,0.8,1.5,0.8c0.1,0,0.1,0,0.2,0
		c0.5,0,1-0.2,1.4-0.6l3.7-3.7l1,0l-2.6,2.6c0,0,0,0,0,0s0,0,0,0l-1.1,1.1c-0.4,0.4-0.6,1-0.6,1.6L33.2,45h-6.6
		c-1,0-1.9,0.7-2.1,1.7c-0.1,0.6,0.1,1.2,0.4,1.6c0.4,0.4,0.9,0.7,1.5,0.7H34c0.5,0,1-0.2,1.4-0.6l3.9-3.9l3.3,3.3v6.6
		c0,1,0.7,1.9,1.7,2.1c0.1,0,0.2,0,0.3,0c0.5,0,0.9-0.2,1.3-0.5c0.4-0.4,0.7-0.9,0.7-1.5V47c0-0.5-0.2-1-0.6-1.4l-3.4-3.4l5.5-5.5
		c0.2-0.2,0.4-0.4,0.5-0.7h6.9h1.4h1.3c0.5,0,1-0.2,1.4-0.6c0.4-0.4,0.6-0.9,0.6-1.4C60.2,33,59.3,32.1,58.2,32.1z M58.9,34.8
		c-0.2,0.2-0.4,0.3-0.7,0.3h-0.3h-1.4h-7.6c0-0.1,0-0.2,0-0.3c0-0.6-0.2-1.3-0.6-1.7h9.9c0.6,0,1,0.4,1,1
		C59.2,34.4,59.1,34.6,58.9,34.8z M47.4,36.1L47.4,36.1l-5.5,5.5l-2.1-2.1l-0.4-0.4l3-3l0.8,0c0.3,0,0.5-0.2,0.5-0.5
		c0-0.1,0-0.2-0.1-0.2c-0.1-0.1-0.1-0.2-0.2-0.2c-0.1,0-0.1,0-0.2,0h0l-0.5,0l-0.7,0l-2.2,0c-0.1,0-0.3,0.1-0.4,0.1L35.7,39
		c-0.2,0.2-0.5,0.3-0.8,0.3c-0.3,0-0.6-0.2-0.7-0.4c0,0,0-0.1,0-0.1c-0.2-0.3-0.2-0.7,0-1c0.1-0.1,0.1-0.2,0.2-0.3l4.2-4.2
		c0.2-0.2,0.4-0.3,0.7-0.3H44h0.7h1.4h0.1c0,0,0,0,0,0c0,0,0,0,0.1,0c0,0,0,0,0.1,0c0,0,0.1,0,0.1,0c0,0,0.1,0,0.1,0
		c0.1,0,0.1,0,0.2,0.1c0,0,0.1,0,0.1,0c0.1,0,0.1,0.1,0.2,0.1c0,0,0.1,0,0.1,0c0,0,0.1,0.1,0.1,0.1l0,0c0,0,0.1,0.1,0.1,0.1
		c0.3,0.3,0.5,0.8,0.5,1.2c0,0.1,0,0.2,0,0.3c0,0.2-0.1,0.3-0.2,0.5C47.7,35.8,47.6,35.9,47.4,36.1z M45.6,47v7.5
		c0,0.3-0.1,0.6-0.3,0.8c-0.2,0.2-0.5,0.3-0.8,0.2c-0.5-0.1-0.8-0.5-0.8-1.1v-6.8c0-0.1-0.1-0.3-0.1-0.4L40,43.9l-0.4-0.4l-0.4-0.4
		l-1.2-1.2c-0.1-0.1-0.1-0.1-0.1-0.2c-0.1-0.2-0.2-0.4-0.1-0.6c0-0.2,0.1-0.5,0.3-0.6l0.7-0.7l0,0l0,0l0.4,0.4l1.5,1.5l0.4,0.4
		l4.1,4.1C45.5,46.5,45.6,46.8,45.6,47z M26.5,48c-0.3,0-0.6-0.1-0.8-0.4c-0.2-0.2-0.3-0.5-0.2-0.8c0.1-0.5,0.5-0.8,1.1-0.8h6.8
		c0.1,0,0.3-0.1,0.4-0.1l3.5-3.5c0.1,0.1,0.1,0.1,0.2,0.2l1.2,1.2l-3.9,3.9C34.5,47.9,34.3,48,34,48H26.5z"/>
	<path d="M48.4,31.6c1.5,0,2.8-1.2,2.8-2.8s-1.2-2.8-2.8-2.8s-2.8,1.2-2.8,2.8S46.9,31.6,48.4,31.6z M48.4,27.1c1,0,1.8,0.8,1.8,1.8
		s-0.8,1.8-1.8,1.8s-1.8-0.8-1.8-1.8S47.5,27.1,48.4,27.1z"/>
	<path class="st1" d="M54.3,55.5c-0.3,0-0.5,0.2-0.5,0.5c0,0.6-0.4,1-1,1H36.3c-0.3,0-0.5,0.2-0.5,0.5s0.2,0.5,0.5,0.5h16.5
		c1.1,0,2-0.9,2-2C54.8,55.8,54.6,55.5,54.3,55.5z"/>
	<path class="st1" d="M32,54.6c-0.4,0.4-1,0.4-1.4,0L18.9,43c-0.2-0.2-0.5-0.2-0.7,0s-0.2,0.5,0,0.7l11.7,11.7
		c0.4,0.4,0.9,0.6,1.4,0.6c0.5,0,1-0.2,1.4-0.6c0.2-0.2,0.2-0.5,0-0.7S32.2,54.4,32,54.6z"/>
	<path class="st0" d="M33.1,37.8H20c-0.3,0-0.5,0.2-0.5,0.5s0.2,0.5,0.5,0.5H33C33,38.5,33,38.2,33.1,37.8z"/>
	<path d="M34.3,12.3c0.3,0.1,0.7,0.2,1.1,0.2c0.4,0,0.7-0.1,1-0.2c0.7-0.3,1.2-0.8,1.5-1.5c0.3-0.7,0.3-1.4,0-2.1s-0.8-1.2-1.5-1.5
		C35.7,7,35,7,34.3,7.2c-0.7,0.3-1.2,0.8-1.5,1.5c-0.3,0.7-0.3,1.4,0,2.1S33.6,12,34.3,12.3z M33.7,9.1c0.2-0.4,0.5-0.8,0.9-0.9
		C34.9,8.1,35.1,8,35.4,8c0.2,0,0.5,0,0.7,0.1c0.4,0.2,0.8,0.5,0.9,0.9c0.2,0.4,0.2,0.9,0,1.3c-0.2,0.4-0.5,0.8-0.9,0.9
		c-0.4,0.2-0.9,0.2-1.3,0c-0.4-0.2-0.8-0.5-0.9-0.9C33.6,10,33.6,9.6,33.7,9.1z"/>
	<path class="st1" d="M36.9,17.8c-0.1-0.3-0.4-0.4-0.7-0.3c-0.3,0.1-0.4,0.4-0.3,0.7c0.2,0.5,0,1.1-0.5,1.3L3.5,32.7
		c-0.3,0.1-0.4,0.4-0.3,0.7c0.1,0.2,0.3,0.3,0.5,0.3c0.1,0,0.1,0,0.2,0l31.9-13.2C36.8,20,37.3,18.8,36.9,17.8z"/>
	<path d="M10.5,29.1c0.5,0,1-0.2,1.4-0.6l10.3-10.3l1-0.4l7.6-3.2c0.7-0.3,1.2-0.8,1.5-1.5s0.3-1.4,0-2.1c-0.2-0.4-0.5-0.8-0.8-1.1
		c-0.2-0.2-0.4-0.3-0.7-0.4L19.8,5c-0.5-0.2-1-0.2-1.5,0c-0.5,0.2-0.9,0.6-1.1,1.1c-0.2,0.5-0.2,1,0,1.5c0.2,0.5,0.6,0.9,1.1,1.1
		l6.3,2.6l-3.4,1.4l-1.4,0.6c-1,0.4-1.5,1.6-1.1,2.6l0.1,0.2l-9.7,9.7c-0.4,0.4-0.6,0.9-0.6,1.4c0,0.5,0.2,1,0.6,1.4
		C9.4,28.9,9.9,29.1,10.5,29.1z M25.9,11.8l0.7,0.3c0.1,0,0.1,0,0.2,0c0.2,0,0.4-0.1,0.5-0.3c0-0.1,0-0.2,0-0.2c0-0.1,0-0.2-0.1-0.3
		c0-0.1-0.1-0.1-0.2-0.1l-1.1-0.4l-7.3-3c-0.2-0.1-0.4-0.3-0.5-0.5c-0.1-0.2-0.1-0.5,0-0.8c0.1-0.2,0.3-0.4,0.5-0.5
		c0.2-0.1,0.5-0.1,0.8,0l9.1,3.8l2,0.8c0.2,0.1,0.4,0.2,0.6,0.4c0.1,0.1,0.2,0.3,0.3,0.4c0,0,0.1,0.1,0.1,0.1c0.2,0.4,0.2,0.9,0,1.3
		c-0.2,0.4-0.5,0.8-0.9,0.9l-7.2,3l-0.7-1.6L22,13.4L25.9,11.8z M9.8,26.4l9.9-9.9c0.1-0.1,0.2-0.4,0.1-0.5l-0.2-0.5
		c-0.2-0.5,0-1.1,0.5-1.3l0.9-0.4l0.7,1.6l0.7,1.6l-0.6,0.3c-0.1,0-0.1,0.1-0.2,0.1L11.2,27.8c-0.4,0.4-1,0.4-1.4,0
		c-0.2-0.2-0.3-0.4-0.3-0.7S9.6,26.6,9.8,26.4z"/>
</g>
</svg>
