<?xml version="1.0" encoding="utf-8"?>
<!-- Generator: Adobe Illustrator 25.2.1, SVG Export Plug-In . SVG Version: 6.00 Build 0)  -->
<svg version="1.1" id="Layer_1" xmlns="http://www.w3.org/2000/svg" xmlns:xlink="http://www.w3.org/1999/xlink" x="0px" y="0px"
	 viewBox="0 0 63 63" style="enable-background:new 0 0 63 63;" xml:space="preserve">
<style type="text/css">
	.st0{fill:#2A76BC;}
	.st1{fill:#FCB019;}
	.st2{fill:#EE2B2F;}
</style>
<g id="Short_track_speed_skating">
	<path d="M40.2,14.2c-0.9-0.9-2.6-0.9-3.5,0c-1,1-1,2.6,0,3.5l6.8,6.8H38c-0.9,0-1.8,0.4-2.5,1c0,0,0,0,0,0l-1.4,1.4
		c-0.5,0.5-0.7,1.1-0.7,1.8c0,0.1,0,0.2,0,0.3L20.7,41.8c-0.5,0.5-0.7,1.1-0.7,1.8c0,0.7,0.3,1.3,0.7,1.8c0.5,0.5,1.1,0.7,1.8,0.7
		s1.3-0.3,1.8-0.7l12.4-12.4l3.5,3.5l-5.3,5.3c-0.5,0.5-0.7,1.1-0.7,1.8c0,0.7,0.3,1.3,0.7,1.8c0.5,0.5,1.1,0.7,1.8,0.7
		s1.3-0.2,1.8-0.7l7.1-7.1c1-1,1-2.6,0-3.5l-3.2-3.2h5.3V44c0,1.4,1.1,2.5,2.5,2.5s2.5-1.1,2.5-2.5V28c0-0.9-0.4-1.8-1-2.5
		L40.2,14.2z M37.4,17c-0.6-0.6-0.6-1.5,0-2.1c0.3-0.3,0.7-0.4,1.1-0.4c0.4,0,0.8,0.2,1.1,0.4l9.6,9.6c0,0,0,0,0,0h-4.2L37.4,17z
		 M23.5,44.6c-0.6,0.6-1.6,0.6-2.1,0c-0.3-0.3-0.4-0.7-0.4-1.1c0-0.4,0.2-0.8,0.4-1.1l12.4-12.4c0.1,0.1,0.2,0.3,0.3,0.4l1.8,1.8
		L23.5,44.6z M44.7,35.4c0.6,0.6,0.6,1.5,0,2.1l-7.1,7.1c-0.6,0.6-1.5,0.6-2.1,0c-0.3-0.3-0.4-0.7-0.4-1.1c0-0.4,0.2-0.8,0.4-1.1
		l5.7-5.6c0.1-0.1,0.1-0.2,0.1-0.4c0-0.1-0.1-0.3-0.1-0.4l-3.9-3.9L37,31.9l-0.4-0.4l-1.8-1.8c-0.1-0.1-0.2-0.3-0.3-0.4
		c-0.1-0.2-0.1-0.4-0.1-0.6c0,0,0-0.1,0-0.1c0-0.2,0-0.4,0.1-0.6c0.1-0.2,0.2-0.3,0.3-0.4c0,0,0,0,0,0l0.3-0.3l0.8-0.8l0,0l0.3,0.3
		l0.5,0.5l0.9,0.9l0,0l0.9,0.9l0.5,0.5l0.7,0.7l0.5,0.5l0.5,0.5L44.7,35.4z M51.5,28.1V29v0.6v0.8V44c0,0.8-0.7,1.5-1.5,1.5
		s-1.5-0.7-1.5-1.5V31.5V31v-0.5v-1V29c0,0,0-0.1,0-0.1c-0.1-0.2-0.2-0.4-0.5-0.4c-0.2,0-0.3,0.1-0.4,0.2c-0.1,0.1-0.1,0.2-0.1,0.3
		v1.5h-6.3l-2.9-2.9c0,0,0,0,0,0c0,0,0,0,0,0l-1.7-1.7c0.4-0.3,0.9-0.4,1.4-0.4h6.4h1.4H49c0.7,0,1.3,0.3,1.8,0.7
		c0.5,0.5,0.7,1.1,0.7,1.8C51.5,28,51.5,28.1,51.5,28.1L51.5,28.1z"/>
	<path d="M57.4,24c-0.1,0-0.1,0-0.2,0l-0.5-0.2c-0.4,0.7-1.2,1.1-2.1,1.1c-1.4,0-2.5-1.1-2.5-2.5c0-0.2,0-0.3,0-0.5l-0.9-0.4
		c-0.1,0.3-0.1,0.6-0.1,0.9c0,1.9,1.6,3.5,3.5,3.5c1.5,0,2.7-0.9,3.2-2.2C57.8,23.9,57.6,24,57.4,24z"/>
	<path class="st0" d="M41.6,47h-8c-0.3,0-0.5,0.2-0.5,0.5s0.2,0.5,0.5,0.5h8c0.3,0,0.5-0.2,0.5-0.5S41.9,47,41.6,47z"/>
	<path class="st0" d="M27.5,47h-8c-0.3,0-0.5,0.2-0.5,0.5s0.2,0.5,0.5,0.5h8c0.3,0,0.5-0.2,0.5-0.5S27.7,47,27.5,47z"/>
	<path class="st1" d="M58.1,21.6c0-0.1-0.1-0.2-0.1-0.4c0-0.1-0.1-0.2-0.1-0.3c0,0,0,0,0,0c0,0,0-0.1,0-0.1c-0.4-0.8-1-1.5-1.8-1.8
		c-0.1,0-0.2,0-0.3-0.1c-0.2-0.1-0.3-0.1-0.5-0.1c-0.1,0-0.2,0-0.3,0c-0.2,0-0.3,0-0.5,0c-0.1,0-0.1,0-0.2,0c0,0,0,0,0,0l-5.2,0.7
		c-0.2,0-0.4,0.2-0.4,0.4c0,0.2,0.1,0.4,0.3,0.5l2.4,1l0.9,0.4l4.5,1.9l0.5,0.2c0.1,0,0.1,0,0.2,0c0.2,0,0.4-0.1,0.5-0.3
		c0,0,0,0,0,0c0,0,0,0,0,0c0.1-0.2,0.2-0.4,0.2-0.6c0,0,0-0.1,0-0.1c0-0.2,0.1-0.4,0.1-0.6C58.2,22.1,58.2,21.9,58.1,21.6z
		 M57.1,22.8C57.1,22.8,57.1,22.8,57.1,22.8L57.1,22.8l-4.5-1.9l-0.9-0.4L51,20.3l0.9-0.1l2.4-0.3c0.1,0,0.1,0,0.2,0
		c0.1,0,0.2,0,0.3,0c0.1,0,0.2,0,0.3,0c0.1,0,0.2,0,0.3,0.1c0.1,0,0.2,0,0.2,0.1c0.6,0.3,1.1,0.7,1.3,1.3c0,0,0,0,0,0c0,0,0,0,0,0
		c0,0,0,0,0,0c0.1,0.2,0.1,0.4,0.2,0.6c0,0.1,0,0.1,0,0.2C57.2,22.4,57.2,22.6,57.1,22.8z"/>
	<path d="M23.1,24c-0.1,0-0.1,0-0.2,0l-0.5-0.2c-0.1,0.1-0.2,0.3-0.3,0.4c-0.9,0.9-2.6,0.9-3.5,0c-0.5-0.5-0.7-1.1-0.7-1.8
		c0-0.2,0-0.3,0-0.5l-0.9-0.4c-0.1,0.3-0.1,0.6-0.1,0.9c0,0.9,0.4,1.8,1,2.5s1.5,1,2.5,1c0.9,0,1.8-0.4,2.5-1
		c0.3-0.3,0.6-0.7,0.8-1.1C23.4,23.9,23.2,24,23.1,24z"/>
	<path class="st0" d="M7.2,47H0v1h7.2c0.3,0,0.5-0.2,0.5-0.5S7.5,47,7.2,47z"/>
	<path class="st2" d="M14.5,20.5l2.4,1l0.9,0.4l4.5,1.9l0.5,0.2c0.1,0,0.1,0,0.2,0c0.2,0,0.4-0.1,0.5-0.3c0,0,0,0,0,0
		c0-0.1,0-0.1,0.1-0.2c0-0.1,0.1-0.3,0.1-0.4c0-0.2,0.1-0.4,0.1-0.6c0,0,0-0.1,0-0.1c0-0.2,0-0.5-0.1-0.7c0-0.2-0.1-0.4-0.2-0.7
		c0,0,0,0,0,0c-0.4-0.9-1-1.5-1.9-1.9c-0.5-0.2-1.1-0.3-1.8-0.2c0,0,0,0,0,0l-5.2,0.7c-0.2,0-0.4,0.2-0.4,0.4
		C14.2,20.2,14.3,20.4,14.5,20.5z M17.6,20.2l2.4-0.3c0.1,0,0.1,0,0.2,0c0.1,0,0.2,0,0.3,0c0.1,0,0.2,0,0.3,0c0.1,0,0.2,0,0.3,0.1
		c0.1,0,0.2,0,0.2,0.1c0.6,0.3,1.1,0.7,1.4,1.4c0,0,0,0,0,0c0.1,0.2,0.1,0.4,0.2,0.6c0,0.1,0,0.1,0,0.2c0,0.2,0,0.4,0,0.6
		c0,0,0,0,0,0l0,0l-4.5-1.9l-0.9-0.4l-0.6-0.3L17.6,20.2z"/>
	<path d="M21,35.4c0.6,0,1.3-0.2,1.8-0.7l5.7-5.7c1-1,1-2.6,0-3.5c-1-1-2.6-1-3.5,0L21,29.4l-3.9-3.9c0,0,0,0,0,0L5.8,14.2
		c-1-1-2.6-1-3.5,0c-1,1-1,2.6,0,3.5L9,24.5H3.6c-0.9,0-1.8,0.4-2.5,1c0,0,0,0,0,0L0,26.7v2c0-0.2,0-0.4,0.1-0.6
		c0.1-0.1,0.2-0.3,0.3-0.4c0,0,0,0,0,0l0.3-0.3l0.8-0.8l0,0L1.9,27l1.4,1.4l0,0l1.4,1.4l0.7,0.7L5.9,31l0.5,0.5l3.9,3.9
		c0.3,0.3,0.4,0.7,0.4,1.1c0,0.4-0.2,0.8-0.4,1.1l-7.1,7.1c-0.6,0.6-1.6,0.6-2.1,0c-0.3-0.3-0.4-0.7-0.4-1.1c0-0.4,0.2-0.8,0.4-1.1
		l5.7-5.6C6.9,36.7,7,36.6,7,36.5c0-0.1-0.1-0.3-0.1-0.4l-3.9-3.9l-0.7-0.7l-1.8-1.8c-0.1-0.1-0.2-0.3-0.3-0.4
		C0.1,29.1,0,28.9,0,28.7v2l1.5,1.5L0,33.7v1.4l2.2-2.2l3.5,3.5l-5.3,5.3C0.3,42,0.1,42.2,0,42.4v2.3c0.1,0.2,0.3,0.4,0.4,0.6
		C0.9,45.8,1.5,46,2.2,46s1.3-0.3,1.8-0.7l7.1-7.1c0.5-0.5,0.7-1.1,0.7-1.8c0-0.7-0.3-1.3-0.7-1.8l-3.2-3.2h6.8
		c0.4,0,0.8-0.1,1.2-0.2l3.4,3.4C19.7,35.2,20.3,35.4,21,35.4z M3,17c-0.6-0.6-0.6-1.5,0-2.1c0.3-0.3,0.7-0.4,1.1-0.4
		c0.4,0,0.8,0.1,1.1,0.4l9.6,9.6c0,0,0,0,0,0h-4.2L3,17z M16.4,30.4L16,30.1l-0.3-0.3l-0.5-0.5L15,29c0,0-0.1,0-0.1-0.1
		c-0.2-0.1-0.4-0.1-0.5,0c0,0,0,0-0.1,0c-0.1,0.1-0.2,0.3-0.1,0.4c0,0.1,0.1,0.2,0.1,0.3l0.7,0.7c-0.1,0-0.2,0-0.3,0H6.8L4,27.6l0,0
		l-1.7-1.7c0.4-0.3,0.9-0.4,1.4-0.4H10h0.7h0.7h3.2c0.7,0,1.3,0.3,1.8,0.7c0,0,0.1,0.1,0.1,0.1l0,0l0.8,0.8l0.2,0.2l0.2,0.2l0.3,0.3
		l2.5,2.5c0.2,0.2,0.5,0.2,0.7,0l4.2-4.2c0.6-0.6,1.5-0.6,2.1,0c0.6,0.6,0.6,1.5,0,2.1L22,34c-0.6,0.6-1.5,0.6-2.1,0l-3.2-3.2
		L16.4,30.4z"/>
</g>
</svg>
