<?xml version="1.0" encoding="utf-8"?>
<!-- Generator: Adobe Illustrator 25.2.1, SVG Export Plug-In . SVG Version: 6.00 Build 0)  -->
<svg version="1.1" id="Layer_1" xmlns="http://www.w3.org/2000/svg" xmlns:xlink="http://www.w3.org/1999/xlink" x="0px" y="0px"
	 viewBox="0 0 63 63" style="enable-background:new 0 0 63 63;" xml:space="preserve">
<style type="text/css">
	.st0{fill:#EE2B2F;}
</style>
<g id="Skeleton">
	<polyline points="63,54.8 0,28.7 0,29.8 63,55.9 	"/>
	<path d="M11.5,25.2l9.2,3.8c0,0,0,0,0,0l0.4,0.1l10.7,4.4l4.6,1.9l-0.5,0.2c-1,0.4-1.5,1.3-1.5,2.3s0.6,1.9,1.5,2.3l7.3,3
		c0.3,0.1,0.7,0.2,1,0.2c0.9,0,1.7-0.4,2.1-1.2c0.4-0.6,0.5-1.4,0.2-2.1c-0.2-0.7-0.7-1.3-1.4-1.5L43.4,38l1.8-0.8
		c0.6-0.3,1.1-0.7,1.4-1.3c0,0,0,0,0,0c0.3-0.9,0.3-1.8,0-2.6c-0.4-0.9-1-1.5-1.9-1.9l-10.2-4.2l-1.8-0.8c-1.1-0.5-2.4-0.1-3,0.9
		l-0.8-0.3l-5.2-2.2l-3.4-8.2c-0.5-1.3-1.9-1.9-3.1-1.5c-0.7,0.2-1.3,0.8-1.5,1.4c-0.3,0.6-0.3,1.3,0,1.9l1.5,3.7l-3.7-1.5
		c-1.3-0.5-2.7,0.1-3.3,1.4C9.6,23.2,10.3,24.7,11.5,25.2z M34.6,28.2l9.7,4c0.6,0.3,1.1,0.7,1.4,1.4c0.3,0.6,0.3,1.3,0,1.9
		c0,0,0,0,0,0c0,0,0,0,0,0c-0.2,0.3-0.4,0.6-0.8,0.8l-2.2,0.9l-0.8,0.3c-0.1,0-0.1,0.1-0.2,0.1c-0.1,0.1-0.1,0.2-0.1,0.3
		c0,0.2,0.1,0.4,0.3,0.5l2.9,1.2c0.4,0.2,0.7,0.5,0.9,0.9c0.1,0.4,0.1,0.9-0.2,1.3c-0.4,0.6-1.2,0.9-1.9,0.6l-7.3-3
		c-0.7-0.3-0.9-0.9-0.9-1.4s0.2-1.1,0.9-1.4l1.4-0.6l1.3-0.5l1.9-0.8c0.1-0.1,0.2-0.2,0.3-0.3c0-0.1,0-0.2,0-0.3
		c-0.1-0.3-0.4-0.4-0.7-0.3L37.7,35l-5-2.1l1-2.3L34.6,28.2z M16.5,18c-0.2-0.4-0.2-0.8,0-1.1c0.2-0.4,0.5-0.7,0.9-0.9
		c0.1,0,0.3-0.1,0.4-0.1c0.6,0,1.2,0.4,1.5,1l3,7.3l-3.9-1.6L16.5,18z M11.1,22.3c0.2-0.4,0.4-0.7,0.8-0.8c0.2-0.1,0.4-0.1,0.6-0.1
		c0.2,0,0.4,0,0.6,0.1l4.6,1.9l0.7,0.3l0.7,0.3l8.9,3.7l1.8,0.7c0.3,0.1,0.5,0,0.7-0.3c0,0,0,0,0,0c0.1-0.2,0.2-0.3,0.3-0.4
		c0.4-0.5,1.1-0.6,1.7-0.4l1.4,0.6l-0.6,1.4l-0.3,0.6l-0.1,0.3l-0.9,2.1l-0.1,0.2l0,0l-0.2-0.1l-8.9-3.7l-1.6-0.6l-1.2-0.5l-0.7-0.3
		l-7.4-3.1C11.1,23.9,10.8,23.1,11.1,22.3z"/>
	<path d="M49.4,40.9c0.4,0.2,0.9,0.3,1.3,0.3c0.5,0,0.9-0.1,1.3-0.3c0.9-0.4,1.5-1,1.9-1.9c0.4-0.9,0.4-1.8,0-2.7
		c-0.4-0.9-1-1.5-1.9-1.9c-1.8-0.7-3.8,0.1-4.6,1.9c-0.4,0.9-0.4,1.8,0,2.7C47.9,39.8,48.5,40.5,49.4,40.9z M48.4,36.7
		c0.4-1,1.3-1.5,2.3-1.5c0.3,0,0.6,0.1,1,0.2c0.6,0.3,1.1,0.7,1.4,1.4s0.3,1.3,0,1.9s-0.7,1.1-1.4,1.4c-0.6,0.3-1.3,0.3-1.9,0
		c-0.6-0.3-1.1-0.7-1.4-1.4S48.2,37.3,48.4,36.7z"/>
	<path class="st0" d="M45.4,45.3L17.7,33.9c-0.3-0.1-0.5,0-0.7,0.3c-0.1,0.3,0,0.5,0.3,0.7L45,46.3c0.3,0.1,0.6,0.2,1,0.2
		c1,0,1.9-0.6,2.3-1.5c0.1-0.3,0-0.5-0.3-0.7c-0.3-0.1-0.5,0-0.7,0.3C47,45.3,46.2,45.6,45.4,45.3z"/>
</g>
</svg>
