<?xml version="1.0" encoding="utf-8"?>
<!-- Generator: Adobe Illustrator 25.2.1, SVG Export Plug-In . SVG Version: 6.00 Build 0)  -->
<svg version="1.1" id="Layer_1" xmlns="http://www.w3.org/2000/svg" xmlns:xlink="http://www.w3.org/1999/xlink" x="0px" y="0px"
	 viewBox="0 0 63 63" style="enable-background:new 0 0 63 63;" xml:space="preserve">
<style type="text/css">
	.st0{fill:#2A76BC;}
</style>
<g id="Ski_jumping">
	<path d="M50.6,15.4c-0.9-0.4-1.8-0.4-2.7,0c-0.9,0.4-1.5,1-1.9,1.9c-0.4,0.9-0.4,1.8,0,2.7c0.4,0.9,1,1.5,1.9,1.9
		c0.4,0.2,0.9,0.3,1.3,0.3c0.5,0,0.9-0.1,1.3-0.3c0.9-0.4,1.5-1,1.9-1.9c0.4-0.9,0.4-1.8,0-2.7S51.5,15.8,50.6,15.4z M51.6,19.6
		c-0.3,0.6-0.7,1.1-1.4,1.4c-0.6,0.3-1.3,0.3-1.9,0c-0.6-0.3-1.1-0.7-1.4-1.4s-0.3-1.3,0-1.9c0.3-0.6,0.7-1.1,1.4-1.4
		c0.3-0.1,0.6-0.2,1-0.2c0.3,0,0.6,0.1,1,0.2c0.6,0.3,1.1,0.7,1.4,1.4C51.9,18.3,51.9,19,51.6,19.6z"/>
	<path class="st0" d="M50.5,29.2c-0.3,0.1-0.4,0.4-0.3,0.7c0.2,0.4,0.2,0.8,0,1.1s-0.4,0.7-0.8,0.8L6.9,49.4
		c-0.3,0.1-0.4,0.4-0.3,0.7c0.1,0.2,0.3,0.3,0.5,0.3c0.1,0,0.1,0,0.2,0l42.5-17.6c1.3-0.5,1.9-2,1.4-3.3
		C51.1,29.2,50.8,29.1,50.5,29.2z"/>
	<path d="M16.1,44.3c0.6,0,1.3-0.2,1.8-0.7l13.8-13.8l1.4-0.6c0,0,0,0,0,0L43.3,25c0.9-0.4,1.5-1,1.9-1.9c0.4-0.9,0.4-1.8,0-2.7
		c-0.1-0.3-0.3-0.6-0.6-0.9c-0.4-0.4-0.8-0.8-1.3-1l-14.8-6.1c-0.6-0.3-1.3-0.3-1.9,0c-0.6,0.3-1.1,0.7-1.4,1.4
		c-0.5,1.3,0.1,2.7,1.4,3.3l8.8,3.7l-5,2.1l-1.8,0.8c-1.3,0.5-1.9,2-1.4,3.3l0.1,0.3l-13,13c-1,1-1,2.6,0,3.5
		C14.9,44,15.5,44.3,16.1,44.3z M36.7,21.2l1.9,0.8c0.1,0,0.1,0,0.2,0c0.2,0,0.4-0.1,0.5-0.3c0-0.1,0-0.2,0-0.3
		c0-0.2-0.1-0.3-0.3-0.4l-1-0.4l-1.3-0.5l-9.7-4c-0.4-0.2-0.7-0.4-0.8-0.8s-0.2-0.8,0-1.1s0.4-0.7,0.8-0.8c0.4-0.2,0.8-0.2,1.1,0
		l12.5,5.2l2.3,0.9c0.6,0.2,1,0.7,1.3,1.2c0,0,0,0.1,0.1,0.1c0.3,0.6,0.3,1.3,0,1.9c-0.3,0.6-0.7,1.1-1.4,1.4l-9.7,4l-1.8-4.3
		l-0.1-0.3L36.7,21.2z M15.1,40.7l13.2-13.2c0.1-0.1,0.2-0.4,0.1-0.5l-0.3-0.6c-0.3-0.8,0-1.6,0.8-2l1.4-0.6l1.9,4.6l-1,0.4
		c-0.1,0-0.1,0.1-0.2,0.1L17.2,42.8c-0.6,0.6-1.5,0.6-2.1,0C14.5,42.3,14.5,41.3,15.1,40.7z"/>
</g>
</svg>
