<?xml version="1.0" encoding="utf-8"?>
<!-- Generator: Adobe Illustrator 25.2.1, SVG Export Plug-In . SVG Version: 6.00 Build 0)  -->
<svg version="1.1" id="Layer_1" xmlns="http://www.w3.org/2000/svg" xmlns:xlink="http://www.w3.org/1999/xlink" x="0px" y="0px"
	 viewBox="0 0 63 63" style="enable-background:new 0 0 63 63;" xml:space="preserve">
<style type="text/css">
	.st0{fill:#2A76BC;}
</style>
<g id="Snowboard">
	<path d="M53.6,17H29.7c-0.7,0-1.3,0.3-1.8,0.7l-3.9,3.9l-3.8-3.8c-0.9-0.9-2.3-1-3.3-0.3c-0.6,0.4-1,1.1-1,1.8
		c-0.1,0.7,0.2,1.5,0.7,2l5.7,5.7c0.9,0.9,2.6,0.9,3.5,0l3.4-3.4V31h-7.5c-1.4,0-2.5,1.1-2.5,2.5v9.1l0.5-0.2l0.5-0.2v-8.6
		c0-0.8,0.7-1.5,1.5-1.5h8h3.5v3h-9.5c-0.3,0-0.5,0.2-0.5,0.5v5.4l0.5-0.2l0.5-0.2V36h9v0.8l0.5-0.2l0.5-0.2V36v-0.5V35v-3v-0.5V31
		v-1.5c0-0.8,0.7-1.5,1.5-1.5s1.5,0.7,1.5,1.5V31v0.5V32v1.5v1.3v0.3l0.5-0.2l0.1,0l0.4-0.2v-1.2v-2v-2V22h15.5
		c0.7,0,1.4-0.3,1.9-0.9c0.5-0.6,0.7-1.3,0.6-2C56,17.9,54.9,17,53.6,17z M54.9,20.5c-0.3,0.3-0.7,0.5-1.1,0.5h-16
		c-0.3,0-0.5,0.2-0.5,0.5v6c-0.4-0.3-0.9-0.5-1.5-0.5c-1.4,0-2.5,1.1-2.5,2.5V31h-3v-8.7c0-0.2-0.1-0.4-0.3-0.5
		c-0.2-0.1-0.4,0-0.5,0.1l-4.2,4.2c-0.6,0.6-1.6,0.6-2.1,0l-5.7-5.7c-0.3-0.3-0.5-0.7-0.4-1.2c0-0.4,0.3-0.8,0.6-1.1
		c0.6-0.4,1.4-0.3,2,0.2l4.2,4.2c0.2,0.2,0.5,0.2,0.7,0l4.2-4.2c0.3-0.3,0.7-0.4,1.1-0.4h23.9c0.8,0,1.5,0.5,1.6,1.2
		C55.3,19.7,55.2,20.2,54.9,20.5z"/>
	<path d="M33.7,16c1.9,0,3.5-1.6,3.5-3.5S35.7,9,33.7,9s-3.5,1.6-3.5,3.5S31.8,16,33.7,16z M33.7,10c1.4,0,2.5,1.1,2.5,2.5
		S35.1,15,33.7,15s-2.5-1.1-2.5-2.5S32.3,10,33.7,10z"/>
	<path class="st0" d="M37.7,34.9l-0.5,0.2L35.1,36l-0.8,0.4l-0.5,0.2l-0.5,0.2l-9,3.7l-0.5,0.2l-0.5,0.2l-3,1.2l-0.5,0.2l-0.5,0.2
		L8.5,47c-1.1,0.5-2,1.3-2.4,2.4c-0.5,1.1-0.5,2.3,0,3.4s1.3,2,2.4,2.4c0.6,0.2,1.1,0.3,1.7,0.3s1.2-0.1,1.7-0.3l37-15.3
		c2.3-0.9,3.4-3.6,2.4-5.9c-0.9-2.3-3.6-3.4-5.9-2.4l-7.3,3L37.7,34.9L37.7,34.9z M47.2,32.4c1.4,0,2.7,0.8,3.2,2.2
		c0.4,0.9,0.4,1.8,0,2.7c-0.4,0.9-1,1.5-1.9,1.9l-37,15.3c-0.9,0.4-1.8,0.4-2.7,0c-0.9-0.4-1.5-1-1.9-1.9s-0.4-1.8,0-2.7
		C7.4,49,8,48.3,8.9,48l10.3-4.3l0.5-0.2l0.5-0.2l3-1.2l0.5-0.2l0.5-0.2l9-3.7l0.5-0.2l0.5-0.2l3-1.2l0.5-0.2l0.5-0.2l7.6-3.2
		C46.3,32.5,46.7,32.4,47.2,32.4z"/>
</g>
</svg>
