<?xml version="1.0" encoding="utf-8"?>
<!-- Generator: Adobe Illustrator 25.2.1, SVG Export Plug-In . SVG Version: 6.00 Build 0)  -->
<svg version="1.1" id="Layer_1" xmlns="http://www.w3.org/2000/svg" xmlns:xlink="http://www.w3.org/1999/xlink" x="0px" y="0px"
	 viewBox="0 0 63 63" style="enable-background:new 0 0 63 63;" xml:space="preserve">
<style type="text/css">
	.st0{fill:#2A76BC;}
</style>
<g id="Speed_skating">
	<path d="M40.7,22.9c0.9,0,1.8-0.3,2.5-1c1.4-1.4,1.4-3.6,0-4.9c-1.4-1.4-3.6-1.4-4.9,0c-1.4,1.4-1.4,3.6,0,4.9
		C38.9,22.6,39.8,22.9,40.7,22.9z M39,17.6c0.5-0.5,1.1-0.7,1.8-0.7s1.3,0.2,1.8,0.7c1,1,1,2.6,0,3.5c-1,1-2.6,1-3.5,0
		S38,18.6,39,17.6z"/>
	<path class="st0" d="M34.7,47h-8c-0.3,0-0.5,0.2-0.5,0.5s0.2,0.5,0.5,0.5h8c0.3,0,0.5-0.2,0.5-0.5S35,47,34.7,47z"/>
	<path class="st0" d="M20.6,47h-8c-0.3,0-0.5,0.2-0.5,0.5s0.2,0.5,0.5,0.5h8c0.3,0,0.5-0.2,0.5-0.5S20.9,47,20.6,47z"/>
	<path d="M45.4,22.7l-3.9,3.9l-3.9-3.9c0,0,0,0,0,0c0,0,0,0,0,0l-0.1-0.1l0,0L26.3,11.4c-0.9-0.9-2.6-0.9-3.5,0
		c-0.5,0.5-0.7,1.1-0.7,1.8c0,0.7,0.3,1.3,0.7,1.8l6.7,6.7h-5.4c-0.9,0-1.8,0.4-2.4,1c0,0,0,0-0.1,0L20.2,24c-1,1-1,2.5,0,3.5v7.9
		l-6.3,6.3c-0.9,0.9-1,2.3-0.3,3.3c0.4,0.6,1.1,1,1.8,1c0.1,0,0.1,0,0.2,0c0.7,0,1.3-0.3,1.8-0.7l7.1-7.1c0.5-0.5,0.7-1.1,0.7-1.8
		v-4l2.1,2.1v8.9c0,1.3,0.9,2.4,2.1,2.6c0.1,0,0.3,0,0.4,0c0.6,0,1.2-0.2,1.6-0.6c0.6-0.5,0.9-1.2,0.9-1.9v-10
		c0-0.7-0.3-1.3-0.7-1.8l-3.2-3.2h6.8c0.4,0,0.8-0.1,1.2-0.2l3.5,3.5c0.5,0.5,1.1,0.7,1.8,0.7s1.3-0.3,1.8-0.7l5.7-5.7
		c1-1,1-2.6,0-3.5C48,21.7,46.4,21.7,45.4,22.7z M40.5,31.2l-3.3-3.3l-0.4-0.4l-0.4-0.4l-0.2-0.2l-0.5-0.5l-0.2-0.2
		c0,0-0.1,0-0.1-0.1c-0.2-0.1-0.4-0.1-0.5,0c0,0,0,0-0.1,0c-0.1,0.1-0.2,0.3-0.1,0.4c0,0.1,0.1,0.2,0.1,0.3l0.6,0.6
		c-0.1,0-0.2,0-0.3,0h-7.8L22.7,23c0.4-0.3,0.9-0.4,1.4-0.4h6.4h0.7h0.7h3.2c0.7,0,1.3,0.3,1.7,0.7l0,0c0,0,0.1,0.1,0.1,0.2
		c0,0,0,0,0,0l0,0l0.8,0.8l0.2,0.2l0.3,0.3l0.2,0.2l2.6,2.6c0.2,0.2,0.5,0.2,0.7,0l4.2-4.2c0.6-0.6,1.6-0.6,2.1,0
		c0.6,0.6,0.6,1.5,0,2.1l-5.7,5.7C42,31.7,41,31.7,40.5,31.2z M31.2,43.5c0,0.4-0.2,0.9-0.5,1.1c-0.3,0.3-0.8,0.4-1.2,0.3
		c-0.7-0.1-1.3-0.8-1.3-1.6v-9.1c0-0.1-0.1-0.3-0.1-0.4l-2.9-2.9l-0.5-0.5l-0.5-0.5l-3-3l-0.3-0.3c-0.1-0.1-0.2-0.2-0.2-0.4
		c-0.2-0.4-0.3-0.9-0.1-1.3c0.1-0.1,0.2-0.3,0.3-0.4c0,0,0,0,0-0.1l0.2-0.2l0.8-0.8l0,0l0.3,0.3l0.5,0.5l1.8,1.8l0.5,0.5l0.7,0.7
		l0.5,0.5l0.5,0.5l3.9,3.9c0.3,0.3,0.4,0.7,0.4,1.1V43.5z M24.2,36.5c0,0.4-0.2,0.8-0.4,1.1l-7.1,7.1c-0.3,0.3-0.8,0.5-1.2,0.4
		c-0.4,0-0.8-0.3-1.1-0.6c-0.4-0.6-0.3-1.4,0.2-2L21,36c0.1-0.1,0.1-0.2,0.1-0.4v-7.1l3,3V36.5z M25.6,12.1l9.5,9.5c0,0,0,0,0,0
		h-4.2l-7.4-7.4c-0.3-0.3-0.4-0.7-0.4-1.1c0-0.4,0.2-0.8,0.4-1.1c0.3-0.3,0.7-0.4,1.1-0.4C25,11.6,25.3,11.8,25.6,12.1z"/>
</g>
</svg>
